<svg xmlns="http://www.w3.org/2000/svg" width="60" height="40" viewBox="0 0 60 40">
  <g fill="none" fill-rule="evenodd" stroke-linecap="round" stroke-linejoin="round">
    <g stroke="#000" stroke-width="2" transform="translate(5 5)">
      <path d="M40,5 L48,5 M40,1 L48,1 M40,9 L48,9"/>
      <polyline points="36 1 29 1 29 9 36 9"/>
      <line x1="24" x2="24" y1="1" y2="9"/>
      <polyline points="13 1 13 9 19.5 9"/>
      <polyline points="0 9 4 1 5 1 9 9"/>
    </g>
    <g stroke="#FFF" stroke-width="2" transform="translate(5 25)">
      <path d="M40,5 L48,5 M40,1 L48,1 M40,9 L48,9"/>
      <polyline points="36 1 29 1 29 9 36 9"/>
      <line x1="24" x2="24" y1="1" y2="9"/>
      <polyline points="13 1 13 9 19.5 9"/>
      <polyline points="0 9 4 1 5 1 9 9"/>
    </g>
  </g>
</svg>
